<svg width="195" height="61" viewBox="0 0 195 61" fill="none" xmlns="http://www.w3.org/2000/svg">
<g clip-path="url(#clip0_289_3450)">
<path d="M55.7449 42.8779C55.4399 42.1406 55.1539 41.3654 54.8488 40.7037L53.438 37.5463L53.3808 37.4896C49.1865 28.4146 44.7062 19.1884 39.959 10.1134L39.7683 9.73524C39.2917 8.84665 38.8151 7.86352 38.3194 6.95602C37.7093 5.87837 37.1183 4.72508 36.1459 3.62852C35.1982 2.48116 34.0054 1.55675 32.6536 0.922007C31.3019 0.287261 29.8249 -0.0419922 28.3292 -0.0419922C26.8336 -0.0419922 25.3566 0.287261 24.0049 0.922007C22.6531 1.55675 21.4603 2.48116 20.5125 3.62852C19.6165 4.72508 18.9492 5.87837 18.3391 6.95602C17.8625 7.93915 17.3859 8.90337 16.8902 9.79196L16.6995 10.1701C12.0286 19.2451 7.472 28.4713 3.27767 37.5463L3.16328 37.6598C2.74385 38.6429 2.24815 39.6638 1.77153 40.7604C1.46648 41.4221 1.16144 42.1406 0.856401 42.9346C0.0328494 45.0139 -0.230136 47.2701 0.0933615 49.4809C0.416859 51.6917 1.31568 53.7807 2.70123 55.5421C4.08678 57.3035 5.91124 58.6764 7.99481 59.5257C10.0784 60.3749 12.3491 60.6711 14.5833 60.3851C16.7252 60.1055 18.7877 59.398 20.646 58.3054C23.1245 56.9252 25.5076 54.9212 28.1767 52.0285C30.8458 54.9212 33.2862 56.9252 35.7075 58.3243C38.0359 59.6796 40.6727 60.4276 43.3716 60.4985C46.4971 60.5114 49.5217 59.4025 51.887 57.3766C54.2524 55.3506 55.7987 52.5445 56.2406 49.4762C56.7512 47.2713 56.5785 44.9649 55.7449 42.859V42.8779ZM28.3674 46.0163C25.0882 41.857 22.9529 38.0379 22.2284 34.7671C21.9282 33.5551 21.8635 32.2975 22.0378 31.0615C22.1712 30.0973 22.5334 29.2465 23.0291 28.5281C24.173 26.8832 26.1749 25.8623 28.3674 25.8623C29.4086 25.8307 30.4414 26.0561 31.3731 26.518C32.3049 26.98 33.1063 27.6642 33.7056 28.5091C34.2013 29.2654 34.5635 30.0973 34.6779 31.0615C34.8686 32.1581 34.7923 33.4248 34.4873 34.7671C33.7628 37.9812 31.6275 41.8381 28.3674 46.0163ZM52.6563 48.8145C52.4397 50.3722 51.8153 51.8465 50.8452 53.0905C49.8752 54.3344 48.5933 55.3046 47.1275 55.9043C45.6785 56.5093 44.077 56.6795 42.5137 56.5093C40.9885 56.3202 39.4633 55.8287 37.8999 54.9212C35.3042 53.3302 32.9702 51.3535 30.9793 49.0602C34.983 44.1446 37.4042 39.6638 38.3194 35.6746C38.7579 33.784 38.8151 32.0824 38.6244 30.5132C38.3863 29.0258 37.8271 27.607 36.9848 26.3538C36.0232 24.995 34.7396 23.8912 33.247 23.1395C31.7543 22.3879 30.0983 22.0114 28.4246 22.0432C24.8975 22.0432 21.7518 23.6691 19.8453 26.3349C18.987 27.5849 18.4324 29.0151 18.2247 30.5132C17.9769 32.1013 18.0341 33.8596 18.5298 35.6746C19.4449 39.6638 21.9234 44.2013 25.8698 49.0981C23.9128 51.4352 21.5733 53.4292 18.9492 54.9968C17.3668 55.9043 15.8607 56.377 14.3354 56.566C11.9635 56.8673 9.56754 56.228 7.66829 54.7872C5.76905 53.3463 4.52006 51.2202 4.1928 48.8712C4.00215 47.3587 4.1356 45.8462 4.74569 44.1446C4.93634 43.5396 5.22231 42.9346 5.52736 42.2162C5.94679 41.2331 6.44248 40.2121 6.91911 39.1912L6.99537 39.0588C11.1134 30.0406 15.6128 20.8332 20.2838 11.8149L20.4744 11.4368C20.951 10.5293 21.4277 9.56508 21.9234 8.65758C22.4191 7.69337 22.9529 6.76696 23.6392 6.01071C24.2333 5.30744 24.9757 4.74186 25.814 4.3538C26.6523 3.96574 27.5662 3.76463 28.4913 3.76463C29.4164 3.76463 30.3303 3.96574 31.1686 4.3538C32.0069 4.74186 32.7493 5.30744 33.3434 6.01071C34.0107 6.76696 34.5635 7.69337 35.0592 8.65758C35.5359 9.56508 36.0125 10.5482 36.5082 11.4368L36.6988 11.8149C41.3507 20.8332 45.8501 30.0406 50.0444 39.0588L50.1016 39.1156C50.5973 40.0987 51.0167 41.1952 51.4934 42.1406C51.7984 42.8779 52.1035 43.464 52.2941 44.0879C52.6563 45.7895 52.847 47.302 52.6563 48.8145ZM79.195 45.6004C77.7584 45.6212 76.3354 45.3211 75.0318 44.7221C73.7281 44.1232 72.5771 43.2408 71.6643 42.1406C69.613 39.7961 68.5243 36.7732 68.6139 33.6706C68.5825 30.5004 69.7063 27.4255 71.7787 25.0115C72.7373 23.8972 73.9305 23.0048 75.2745 22.3973C76.6184 21.7897 78.0803 21.4817 79.5572 21.4949C80.947 21.4572 82.3235 21.7706 83.5575 22.4056C84.7915 23.0406 85.8424 23.9764 86.6113 25.1249L86.802 22.1566H92.369V44.9954H86.7829L86.5923 41.6679C85.7995 42.8943 84.7037 43.8993 83.409 44.5876C82.1144 45.2759 80.6638 45.6245 79.195 45.6004ZM80.6439 40.1554C81.7497 40.1554 82.722 39.8529 83.6372 39.3046C84.476 38.6996 85.1624 37.9056 85.6962 36.9413C86.1728 35.9771 86.4207 34.8238 86.4207 33.5382C86.495 32.4216 86.2758 31.305 85.7846 30.2975C85.2933 29.2901 84.5468 28.4263 83.6181 27.7907C82.7257 27.2393 81.6954 26.9471 80.6439 26.9471C79.5925 26.9471 78.5622 27.2393 77.6698 27.7907C76.8309 28.3957 76.1446 29.1898 75.6108 30.154C75.1066 31.2174 74.8586 32.3824 74.8863 33.5571C74.812 34.6737 75.0311 35.7904 75.5224 36.7978C76.0136 37.8052 76.7601 38.669 77.6889 39.3046C78.5849 39.8529 79.5572 40.1554 80.6439 40.1554ZM101.902 15.9932C101.902 16.6549 101.787 17.2599 101.482 17.7515C101.177 18.2241 100.758 18.659 100.205 18.9615C99.6519 19.264 99.0609 19.3774 98.4508 19.3774C97.8407 19.3774 97.2306 19.264 96.6777 18.9615C96.1548 18.6728 95.7151 18.2563 95.4004 17.7515C95.1051 17.2129 94.9603 16.6059 94.9809 15.9932C94.9809 15.3126 95.1144 14.7076 95.4004 14.2349C95.7054 13.6677 96.1439 13.3274 96.6777 13.0249C97.2306 12.7224 97.8216 12.5901 98.4508 12.5901C99.0576 12.5762 99.6577 12.7187 100.192 13.0037C100.727 13.2887 101.178 13.7064 101.501 14.216C101.779 14.7672 101.916 15.3773 101.902 15.9932ZM95.4194 44.9198V22.1188H101.482V44.9576H95.4004L95.4194 44.9198ZM117.687 28.0932V28.1688C117.402 28.0365 117.02 27.9798 116.734 27.9231C116.353 27.8474 116.048 27.8474 115.686 27.8474C113.989 27.8474 112.711 28.339 111.873 29.3599C110.957 30.3998 110.538 31.8556 110.538 33.7273V44.9387H104.456V22.0999H110.042L110.233 25.5598C110.843 24.3498 111.568 23.4423 112.597 22.7616C113.621 22.1003 114.827 21.7701 116.048 21.8163C116.486 21.8163 116.906 21.8541 117.268 21.9298C117.459 21.9865 117.573 21.9865 117.687 22.0432V28.0932ZM120.128 44.9198V12.7413H126.191V25.0304C127.048 23.9338 128.021 23.0831 129.241 22.4213C131.173 21.4821 133.367 21.2157 135.47 21.6651C137.573 22.1144 139.462 23.2533 140.833 24.8981C142.888 27.2474 143.977 30.2778 143.883 33.387C143.914 36.5571 142.791 39.632 140.718 42.046C139.76 43.1603 138.566 44.0527 137.222 44.6602C135.878 45.2678 134.417 45.5758 132.94 45.5626C131.55 45.6003 130.173 45.2869 128.939 44.6519C127.705 44.0169 126.654 43.0812 125.885 41.9326L125.695 44.9009L120.128 44.9576V44.9198ZM131.853 40.1554C132.94 40.1554 133.912 39.8529 134.827 39.3046C135.666 38.6996 136.352 37.9056 136.886 36.9413C137.382 35.9771 137.611 34.8238 137.611 33.5382C137.611 32.2715 137.382 31.1182 136.886 30.154C136.385 29.2242 135.682 28.4169 134.827 27.7907C133.935 27.2393 132.904 26.9471 131.853 26.9471C130.801 26.9471 129.771 27.2393 128.879 27.7907C128.021 28.3957 127.354 29.1898 126.801 30.154C126.296 31.2174 126.048 32.3824 126.076 33.5571C126.002 34.6737 126.221 35.7904 126.712 36.7978C127.203 37.8052 127.95 38.669 128.879 39.3046C129.775 39.8529 130.747 40.1554 131.853 40.1554ZM146.171 44.9387V22.0999H151.757L151.948 25.0682C152.649 23.9304 153.645 22.9992 154.832 22.371C156.018 21.7428 157.353 21.4403 158.697 21.4949C160.233 21.4686 161.744 21.8922 163.039 22.7127C164.335 23.5332 165.357 24.7142 165.979 26.1081C166.647 27.5449 167.009 29.3221 167.009 31.3073V44.9954H160.927V32.1013C160.927 30.5132 160.565 29.2654 159.84 28.339C159.116 27.4315 158.125 26.9399 156.866 26.9399C155.951 26.9399 155.15 27.129 154.445 27.5449C153.778 27.9798 153.225 28.5281 152.805 29.3032C152.381 30.0868 152.171 30.9666 152.195 31.8556V44.9387H146.171ZM170.04 44.9387V12.7224H176.122V25.0115C176.946 23.9088 178.018 23.0117 179.252 22.3915C180.486 21.7712 181.85 21.4448 183.233 21.4382C184.67 21.4174 186.093 21.7176 187.397 22.3165C188.7 22.9154 189.851 23.7978 190.764 24.8981C192.805 27.2472 193.887 30.2685 193.795 33.3681C193.829 36.5385 192.705 39.6139 190.631 42.0271C189.672 43.1414 188.479 44.0338 187.135 44.6413C185.791 45.2489 184.329 45.5569 182.852 45.5437C181.462 45.5814 180.086 45.268 178.852 44.633C177.618 43.998 176.567 43.0622 175.798 41.9137L175.626 44.882L170.04 44.9387ZM181.823 40.1554C182.928 40.1554 183.901 39.8529 184.797 39.3046C185.655 38.6996 186.322 37.9056 186.875 36.9413C187.351 35.9771 187.599 34.8238 187.599 33.5382C187.674 32.4216 187.454 31.305 186.963 30.2975C186.472 29.2901 185.725 28.4263 184.797 27.7907C183.904 27.2393 182.874 26.9471 181.823 26.9471C180.771 26.9471 179.741 27.2393 178.848 27.7907C178.01 28.3957 177.323 29.1898 176.789 30.154C176.257 31.2079 176.008 32.3799 176.065 33.5571C175.991 34.6737 176.21 35.7904 176.701 36.7978C177.192 37.8052 177.939 38.669 178.867 39.3046C179.764 39.8529 180.679 40.1554 181.823 40.1554Z" fill="#FF385C"/>
</g>
<defs>
<clipPath id="clip0_289_3450">
<rect width="194.464" height="60.5" fill="white"/>
</clipPath>
</defs>
</svg>
