<svg width="80" height="80" viewBox="0 0 80 80" fill="none" xmlns="http://www.w3.org/2000/svg">
<circle cx="40" cy="40" r="40" fill="#6BA6FF"/>
<path d="M26.668 26.6659C23.9121 26.6659 21.668 28.9101 21.668 31.6659V48.3326C21.668 51.0884 23.9121 53.3326 26.668 53.3326H53.3346C56.0905 53.3326 58.3346 51.0884 58.3346 48.3326V31.6659C58.3346 28.9101 56.0905 26.6659 53.3346 26.6659H26.668ZM26.668 28.3326H53.3346C55.1955 28.3326 56.668 29.8051 56.668 31.6659V48.3326C56.668 50.1934 55.1955 51.6659 53.3346 51.6659H26.668C26.2293 51.6692 25.7944 51.5853 25.3884 51.4189C24.9825 51.2526 24.6137 51.0072 24.3035 50.697C23.9933 50.3868 23.7479 50.018 23.5816 49.6121C23.4153 49.2062 23.3313 48.7712 23.3346 48.3326V31.6659C23.3346 29.8051 24.8071 28.3326 26.668 28.3326Z" fill="#FAFAFA"/>
<path d="M27.5292 31.667C27.4157 31.6637 27.3028 31.6837 27.1973 31.7257C27.0919 31.7677 26.9961 31.8308 26.9159 31.9111C26.7596 32.0674 26.6719 32.2793 26.6719 32.5003C26.6719 32.7213 26.7596 32.9332 26.9159 33.0895L36.9159 43.0895C38.615 44.7895 41.395 44.7895 43.0942 43.0895L53.0942 33.0895C53.2504 32.9332 53.3382 32.7213 53.3382 32.5003C53.3382 32.2793 53.2504 32.0674 53.0942 31.9111C52.9379 31.7549 52.726 31.6671 52.505 31.6671C52.2841 31.6671 52.0721 31.7549 51.9159 31.9111L41.9159 41.9111C41.6658 42.1635 41.3681 42.3639 41.0402 42.5006C40.7122 42.6374 40.3604 42.7078 40.005 42.7078C39.6497 42.7078 39.2979 42.6374 38.9699 42.5006C38.6419 42.3639 38.3443 42.1635 38.0942 41.9111L28.0942 31.9111C27.9439 31.7606 27.7418 31.6733 27.5292 31.667Z" fill="#FAFAFA"/>
</svg>
