<svg width="182" height="61" viewBox="0 0 182 61" fill="none" xmlns="http://www.w3.org/2000/svg">
<path d="M77.2369 31.0262C77.2369 39.4239 70.5708 45.6119 62.3899 45.6119C54.2091 45.6119 47.543 39.4239 47.543 31.0262C47.543 22.5693 54.2091 16.4404 62.3899 16.4404C70.5708 16.4404 77.2369 22.5693 77.2369 31.0262ZM70.7376 31.0262C70.7376 25.7785 66.8741 22.1879 62.3899 22.1879C57.9058 22.1879 54.0423 25.7785 54.0423 31.0262C54.0423 36.2213 57.9058 39.8644 62.3899 39.8644C66.8741 39.8644 70.7376 36.2147 70.7376 31.0262Z" fill="#B0B0B3"/>
<path d="M109.266 31.0262C109.266 39.4239 102.6 45.6119 94.4192 45.6119C86.2384 45.6119 79.5723 39.4239 79.5723 31.0262C79.5723 22.5759 86.2384 16.4404 94.4192 16.4404C102.6 16.4404 109.266 22.5693 109.266 31.0262ZM102.767 31.0262C102.767 25.7785 98.9033 22.1879 94.4192 22.1879C89.9351 22.1879 86.0716 25.7785 86.0716 31.0262C86.0716 36.2213 89.9351 39.8644 94.4192 39.8644C98.9033 39.8644 102.767 36.2147 102.767 31.0262Z" fill="#B0B0B3"/>
<path d="M139.963 17.3216V43.5076C139.963 54.2792 133.517 58.6786 125.896 58.6786C118.723 58.6786 114.406 53.9504 112.778 50.0837L118.436 47.7623C119.444 50.1363 121.913 52.9377 125.89 52.9377C130.767 52.9377 133.79 49.9719 133.79 44.3888V42.291H133.563C132.109 44.06 129.306 45.6054 125.77 45.6054C118.369 45.6054 111.59 39.2529 111.59 31.0788C111.59 22.8455 118.369 16.4404 125.77 16.4404C129.299 16.4404 132.102 17.9858 133.563 19.7022H133.79V17.3282H139.963V17.3216ZM134.251 31.0788C134.251 25.9429 130.774 22.1879 126.35 22.1879C121.866 22.1879 118.109 25.9429 118.109 31.0788C118.109 36.1621 121.866 39.8644 126.35 39.8644C130.774 39.8644 134.251 36.1621 134.251 31.0788Z" fill="#B0B0B3"/>
<path d="M150.138 1.97266V44.7172H143.799V1.97266H150.138Z" fill="#B0B0B3"/>
<path d="M174.841 35.8265L179.885 39.1408C178.257 41.5148 174.334 45.6051 167.554 45.6051C159.146 45.6051 152.867 39.2 152.867 31.0194C152.867 22.3455 159.2 16.4336 166.827 16.4336C174.507 16.4336 178.264 22.4573 179.492 25.7125L180.166 27.3696L160.381 35.4451C161.895 38.3714 164.251 39.8642 167.554 39.8642C170.864 39.8642 173.159 38.2596 174.841 35.8265ZM159.313 30.5788L172.539 25.1666C171.811 23.3451 169.623 22.0759 167.047 22.0759C163.744 22.0759 159.146 24.9496 159.313 30.5788Z" fill="#B0B0B3"/>
<path d="M23.5483 27.2316V21.0435H44.7077C44.9146 22.122 45.0214 23.3977 45.0214 24.7787C45.0214 29.4214 43.7335 35.1623 39.583 39.2527C35.546 43.3956 30.3879 45.6052 23.555 45.6052C10.89 45.6052 0.240234 35.4385 0.240234 22.9571C0.240234 10.4757 10.89 0.309082 23.555 0.309082C30.5614 0.309082 35.5527 3.01843 39.3028 6.54979L34.872 10.9163C32.1829 8.43055 28.5396 6.49718 23.5483 6.49718C14.2998 6.49718 7.0665 13.8427 7.0665 22.9571C7.0665 32.0716 14.2998 39.4171 23.5483 39.4171C29.5471 39.4171 32.9636 37.0431 35.1523 34.8861C36.9273 33.1369 38.095 30.638 38.5554 27.225L23.5483 27.2316Z" fill="#B0B0B3"/>
</svg>
