<svg width="80" height="80" viewBox="0 0 80 80" fill="none" xmlns="http://www.w3.org/2000/svg">
<circle cx="40" cy="40" r="40" fill="#6BA6FF"/>
<path d="M55.6145 47.764C54.1887 46.2992 50.136 43.5551 47.4798 43.5551C46.8645 43.5551 46.3274 43.6918 45.888 43.975C44.5891 44.8051 43.554 45.4496 43.0559 45.4496C42.7825 45.4496 42.4895 45.2054 41.845 44.6488L41.7376 44.5511C39.9505 42.9984 39.5696 42.598 38.8762 41.8754L38.7005 41.6898C38.5735 41.5629 38.4661 41.4457 38.3587 41.3383C37.7532 40.7133 37.3137 40.264 35.761 38.5062L35.6927 38.4281C34.9505 37.5883 34.4622 37.0414 34.4329 36.641C34.4036 36.2504 34.7454 35.6156 35.6145 34.434C36.6692 33.0082 36.7083 31.2504 35.7415 29.2094C34.97 27.598 33.7102 26.0551 32.5969 24.6976L32.4993 24.5804C31.5423 23.4086 30.429 22.8226 29.1887 22.8226C27.8118 22.8226 26.6692 23.5648 26.0637 23.9554C26.0149 23.9847 25.9661 24.0238 25.9173 24.0531C24.5598 24.9125 23.5735 26.0941 23.2024 27.2953C22.6458 29.1019 22.2747 31.4457 24.9407 36.3187C27.2454 40.5375 29.3352 43.3695 32.6555 46.7777C35.7805 49.9808 37.1673 51.016 40.2727 53.2621C43.7298 55.7621 47.0501 57.1976 49.3743 57.1976C51.5325 57.1976 53.2317 57.1976 55.6536 54.2777C58.1927 51.2113 57.138 49.3363 55.6145 47.764ZM54.4915 53.223C52.5384 55.5863 51.4153 55.5863 49.3841 55.5863C47.4016 55.5863 44.3255 54.2191 41.1614 51.9437C38.1341 49.7562 36.7864 48.7504 33.7493 45.6351C30.5364 42.3441 28.5149 39.6 26.2884 35.5277C23.9348 31.2211 24.1985 29.3363 24.677 27.7836C24.9309 26.9535 25.6927 26.0648 26.7278 25.4203C26.7766 25.391 26.8255 25.3519 26.8841 25.3226C27.4016 24.9906 28.261 24.434 29.1985 24.434C29.9798 24.434 30.6731 24.8246 31.3372 25.6351L31.4348 25.7523C33.9251 28.7992 35.8684 31.4945 34.4036 33.4867C33.3684 34.8832 32.8216 35.8304 32.9094 36.807C32.9876 37.7543 33.6223 38.4672 34.5794 39.5414L34.6477 39.6195C36.22 41.3969 36.6692 41.8656 37.2942 42.5004C37.4016 42.6078 37.5091 42.725 37.636 42.8519L37.8118 43.0375C38.5344 43.7894 38.9348 44.1996 40.7708 45.8109L40.8782 45.9086C41.6594 46.5922 42.2356 47.0902 43.0755 47.0902C43.9446 47.0902 44.9016 46.5433 46.718 45.3812C46.9036 45.264 47.1673 45.1957 47.4993 45.1957C49.6184 45.1957 53.2708 47.6176 54.5501 48.9359C55.7219 50.1273 56.3079 51.0258 54.4915 53.223Z" fill="#FAFAFA"/>
</svg>
