<svg width="57" height="34" viewBox="0 0 57 34" fill="none" xmlns="http://www.w3.org/2000/svg">
<path fill-rule="evenodd" clip-rule="evenodd" d="M6.31428 0.850342C6.19124 1.22759 0 33.1687 0 33.4265C0 33.512 3.22763 33.5482 7.17248 33.507L14.345 33.4321L21.1861 17.0729C24.9488 8.07523 28.0273 0.66536 28.0273 0.606783C28.0273 0.547926 23.1677 0.5 17.2281 0.5C8.83646 0.5 6.40313 0.578196 6.31428 0.850342ZM34.3335 0.850342C34.1962 1.24357 28.0273 33.0644 28.0273 33.38C28.0273 33.491 31.2552 33.5482 35.2007 33.507L42.374 33.4321L49.2143 17.0364C52.9764 8.0189 56.0547 0.609028 56.0547 0.570351C56.0547 0.531673 51.195 0.5 45.2555 0.5C36.868 0.5 34.4288 0.578196 34.3335 0.850342Z" fill="#96C0FF"/>
</svg>
