<svg width="1150" height="1120" viewBox="0 0 1150 1120" fill="none" xmlns="http://www.w3.org/2000/svg">
<path d="M319.819 519.301C281.783 400.268 411.029 280.585 480.406 235.622C704.606 84.8 824.016 505.281 625.68 599.041C427.344 692.801 853.99 834.087 729.254 887.197C604.518 940.308 353.508 864.998 278.946 781.391C204.384 697.784 367.363 668.093 319.819 519.301Z" stroke="#6BA6FF" stroke-width="2"/>
<path d="M574.524 493.917C554.544 431.202 622.613 368.097 659.145 344.384C777.204 264.844 839.917 486.389 735.49 535.853C631.064 585.316 855.585 659.65 789.911 687.672C724.238 715.694 592.142 676.078 552.924 632.041C513.705 588.003 599.5 572.312 574.524 493.917Z" stroke="#6BA6FF" stroke-width="2"/>
<path d="M332.034 517.983C294.798 401.702 421.092 284.849 488.894 240.957C707.998 93.7239 824.918 504.476 631.072 595.983C437.226 687.491 854.366 825.651 732.451 877.481C610.536 929.31 365.122 855.658 292.195 773.966C219.268 692.274 378.578 663.334 332.034 517.983Z" stroke="#6BA6FF" stroke-width="2"/>
<path d="M344.193 516.718C307.874 403.094 431.253 288.859 497.482 245.944C711.507 101.991 825.532 503.364 636.194 592.85C446.856 682.337 854.169 817.224 735.091 867.913C616.014 918.602 376.379 846.702 305.192 766.891C234.005 687.08 389.592 658.749 344.193 516.718Z" stroke="#6BA6FF" stroke-width="2"/>
<path d="M356.303 515.639C320.811 404.708 441.281 293.206 505.952 251.321C714.943 110.822 826.381 502.681 641.489 590.011C456.597 677.341 854.41 809.091 738.128 858.557C621.846 908.023 387.801 837.791 318.263 759.864C248.725 681.937 400.668 654.304 356.303 515.639Z" stroke="#6BA6FF" stroke-width="2"/>
<path d="M368.463 514.373C333.887 406.098 451.441 297.215 514.54 256.307C718.452 119.089 826.995 501.568 646.612 586.877C466.228 672.187 854.213 800.663 740.768 848.989C627.323 897.314 399.058 828.834 331.26 752.788C263.461 676.742 411.682 649.717 368.463 514.373Z" stroke="#6BA6FF" stroke-width="2"/>
<path d="M380.568 513.296C346.819 407.713 461.465 301.563 523.007 261.686C721.884 127.922 827.84 500.887 651.903 584.04C475.965 667.193 854.45 792.533 743.801 839.634C633.151 886.736 410.476 819.924 344.327 745.762C278.178 671.6 422.754 645.273 380.568 513.296Z" stroke="#6BA6FF" stroke-width="2"/>
<path d="M392.728 512.031C359.895 409.106 471.626 305.574 531.595 266.674C725.393 136.189 828.454 499.775 657.025 580.907C485.596 662.04 854.253 784.106 746.441 830.067C638.629 876.028 421.733 810.969 357.324 738.688C292.914 666.407 433.768 640.688 392.728 512.031Z" stroke="#6BA6FF" stroke-width="2"/>
<path d="M404.837 510.952C372.832 410.719 481.654 309.921 540.066 272.051C728.829 145.021 829.303 499.092 662.32 578.068C495.337 657.044 854.495 775.974 749.478 820.711C644.46 865.448 433.155 802.057 370.395 731.66C307.635 661.263 444.844 636.243 404.837 510.952Z" stroke="#6BA6FF" stroke-width="2"/>
<path d="M416.734 509.307C385.493 411.743 491.458 313.698 548.345 276.871C732.18 153.335 830.277 497.971 667.634 574.751C504.992 651.53 854.983 767.449 752.692 810.937C650.402 854.425 444.494 792.629 383.306 724.087C322.119 655.544 455.785 631.262 416.734 509.307Z" stroke="#6BA6FF" stroke-width="2"/>
<path d="M428.814 508.216C398.462 413.369 501.468 318.038 556.764 282.228C735.459 162.107 830.758 497.15 672.668 571.812C514.577 646.474 854.735 759.132 755.308 801.422C655.881 843.712 455.757 783.657 396.295 717.027C336.833 650.398 466.753 626.776 428.814 508.216Z" stroke="#6BA6FF" stroke-width="2"/>
<path d="M440.999 506.963C411.501 414.748 511.642 322.055 565.4 287.235C739.121 170.434 831.736 496.176 678.048 568.778C524.359 641.38 855.023 750.89 758.365 792.014C661.708 833.137 467.169 774.762 409.37 709.984C351.572 645.207 477.871 622.231 440.999 506.963Z" stroke="#6BA6FF" stroke-width="2"/>
<path d="M453.077 505.874C424.469 416.376 521.65 326.397 573.817 292.594C742.399 179.208 832.216 495.357 683.079 565.842C533.943 636.327 854.773 742.574 760.979 782.5C667.185 822.426 478.43 765.792 422.357 702.927C366.284 640.062 488.837 617.747 453.077 505.874Z" stroke="#6BA6FF" stroke-width="2"/>
<path d="M465.266 504.62C437.512 417.755 531.829 330.413 582.457 297.601C746.065 187.534 833.197 494.383 688.463 562.808C543.729 631.233 855.065 734.332 764.04 773.092C673.015 811.851 489.846 756.896 435.436 695.884C381.027 634.871 499.959 613.202 465.266 504.62Z" stroke="#6BA6FF" stroke-width="2"/>
<path d="M477.374 503.542C450.446 419.369 541.855 334.761 590.925 302.979C749.499 196.366 834.044 493.701 693.756 559.969C553.468 626.237 855.304 726.2 767.075 763.736C678.845 801.272 501.266 747.985 448.506 688.857C395.746 629.728 511.033 608.758 477.374 503.542Z" stroke="#6BA6FF" stroke-width="2"/>
<path d="M489.535 502.276C463.524 420.76 552.017 338.77 599.515 307.965C753.01 204.633 834.66 492.588 698.88 556.836C563.101 621.083 855.109 717.773 769.717 754.168C684.324 790.564 512.525 739.029 461.504 681.781C410.484 624.534 522.049 604.172 489.535 502.276Z" stroke="#6BA6FF" stroke-width="2"/>
<path d="M501.643 501.198C476.459 422.375 562.043 343.119 607.984 313.343C756.444 213.465 835.507 491.906 704.173 553.997C572.84 616.089 855.349 709.641 772.751 744.813C690.154 779.985 523.945 730.119 474.574 674.755C425.202 619.391 533.122 599.727 501.643 501.198Z" stroke="#6BA6FF" stroke-width="2"/>
<path d="M513.881 499.685C489.586 423.577 572.212 347.036 616.561 318.278C759.882 221.815 836.147 490.662 709.365 550.636C582.583 610.61 855.259 700.901 775.525 734.875C695.791 768.849 535.366 720.724 487.721 667.273C440.075 613.822 544.249 594.818 513.881 499.685Z" stroke="#6BA6FF" stroke-width="2"/>
<path d="M525.988 498.607C502.521 425.192 582.238 351.384 625.03 323.657C763.316 230.648 836.993 489.981 714.658 547.798C592.322 605.616 855.498 692.77 778.56 725.521C701.621 758.271 546.786 711.814 500.79 660.247C454.793 608.679 555.323 590.375 525.988 498.607Z" stroke="#6BA6FF" stroke-width="2"/>
<path d="M538.15 497.341C515.599 426.583 592.4 355.393 633.62 328.642C766.827 238.913 837.609 488.867 719.782 544.664C601.955 600.461 855.303 684.342 781.202 715.952C707.101 747.561 558.045 702.857 513.788 653.171C469.532 603.484 566.339 585.788 538.15 497.341Z" stroke="#6BA6FF" stroke-width="2"/>
<path d="M550.259 496.261C528.535 428.196 602.428 359.74 642.09 334.02C770.263 247.745 838.458 488.184 725.077 541.825C611.696 595.465 855.545 676.21 784.239 706.596C712.932 736.982 569.467 693.945 526.86 646.143C484.252 598.341 577.414 581.343 550.259 496.261Z" stroke="#6BA6FF" stroke-width="2"/>
<path d="M562.444 495.008C541.574 429.576 612.603 363.757 650.726 339.026C773.925 256.072 839.436 487.211 730.457 538.791C621.478 590.371 855.832 667.968 787.296 697.188C718.759 726.407 580.879 685.05 539.935 639.1C498.991 593.15 588.532 576.798 562.444 495.008Z" stroke="#6BA6FF" stroke-width="2"/>
</svg>
