<svg width="17" height="15" viewBox="0 0 17 15" fill="none" xmlns="http://www.w3.org/2000/svg">
<path d="M8.40661 2.05458L8.85207 1.28456C9.12702 0.803314 9.74018 0.641064 10.2214 0.916064C10.7026 1.19106 10.8648 1.80433 10.5898 2.28558L6.29764 9.71608H9.40198C10.4084 9.71608 10.972 10.8986 10.5348 11.7181H1.43349C0.878062 11.7181 0.432617 11.2726 0.432617 10.7171C0.432617 10.1616 0.878062 9.71608 1.43349 9.71608H3.98516L7.25175 4.05383L6.23164 2.28283C5.95668 1.80158 6.11889 1.19381 6.60009 0.913314C7.0813 0.638314 7.68895 0.800564 7.96941 1.28181L8.40661 2.05458ZM4.54612 12.7493L3.58371 14.4186C3.30876 14.8998 2.6956 15.0621 2.21439 14.7871C1.7332 14.5121 1.57098 13.8988 1.84594 13.4176L2.56085 12.1801C3.36926 11.9298 4.02641 12.1223 4.54612 12.7493ZM12.8336 9.72158H15.4375C15.9929 9.72158 16.4384 10.1671 16.4384 10.7226C16.4384 11.2781 15.9929 11.7236 15.4375 11.7236H13.9912L14.9673 13.4176C15.2422 13.8988 15.08 14.5066 14.5988 14.7871C14.1176 15.0621 13.51 14.8998 13.2295 14.4186C11.5852 11.5668 10.3506 9.43283 9.53123 8.01108C8.69257 6.56458 9.29202 5.11258 9.88318 4.62033C10.5403 5.74783 11.522 7.45008 12.8336 9.72158Z" fill="#2E2E36"/>
</svg>
