<svg width="21" height="23" viewBox="0 0 21 23" fill="none" xmlns="http://www.w3.org/2000/svg">
<path d="M10.4155 0.500009C6.457 0.506009 3.2905 4.09701 3.2905 8.16651C3.2905 11.072 4.9405 13.7195 6.6055 15.6995C4.9285 15.9125 3.4675 16.256 2.374 16.7135C1.753 16.973 1.2445 17.2655 0.871 17.609C0.4975 17.954 0.25 18.3725 0.25 18.8375C0.25 19.4165 0.625 19.91 1.1695 20.3075C1.7155 20.705 2.4625 21.0365 3.37 21.3155C5.185 21.8735 7.651 22.2125 10.375 22.2125C13.099 22.2125 15.565 21.8735 17.38 21.3155C18.2875 21.0365 19.0345 20.705 19.5805 20.3075C20.1265 19.91 20.5 19.4165 20.5 18.8375C20.5 18.3725 20.2525 17.9555 19.882 17.612C19.51 17.27 19.003 16.976 18.385 16.7165C17.3005 16.2605 15.85 15.92 14.1865 15.7055C15.8785 13.6385 17.5405 10.805 17.5405 7.60101C17.5405 3.53151 14.335 0.494009 10.4155 0.500009ZM10.4155 1.25001C13.9495 1.24401 16.7905 3.92151 16.7905 7.60101C16.7905 13.394 10.822 18.038 10.4125 18.353C10.21 18.2 8.8705 17.207 7.3255 15.4085C5.6665 13.4795 4.0405 10.868 4.0405 8.16651C4.0405 4.48701 6.9145 1.25601 10.4155 1.25001ZM10.3105 4.77501C9.6156 4.80427 8.96059 5.10764 8.48886 5.61873C8.01712 6.12982 7.76709 6.80699 7.7935 7.50201C7.82275 8.19718 8.12634 8.85242 8.63776 9.3242C9.14917 9.79597 9.82673 10.0458 10.522 10.019C11.2169 9.98937 11.8718 9.68562 12.3432 9.17424C12.8147 8.66287 13.0643 7.98553 13.0375 7.29051C13.0079 6.59587 12.7043 5.94125 12.1933 5.46983C11.6822 4.99842 11.0053 4.7486 10.3105 4.77501ZM10.3405 5.52201C10.5868 5.51156 10.8326 5.54984 11.0641 5.63465C11.2955 5.71947 11.5079 5.84915 11.689 6.01625C11.8702 6.18335 12.0166 6.38458 12.1198 6.6084C12.223 6.83222 12.281 7.07422 12.2905 7.32051C12.3012 7.56673 12.263 7.81263 12.1782 8.04405C12.0935 8.27547 11.9638 8.48784 11.7966 8.66894C11.6295 8.85004 11.4282 8.99629 11.2042 9.09927C10.9803 9.20226 10.7383 9.25994 10.492 9.26901C10.246 9.27966 10.0003 9.24155 9.76904 9.15686C9.5378 9.07218 9.32559 8.9426 9.14463 8.77558C8.96367 8.60857 8.81753 8.40741 8.71462 8.18368C8.61171 7.95996 8.55407 7.7181 8.545 7.47201C8.53415 7.22579 8.5721 6.97985 8.65667 6.74835C8.74124 6.51685 8.87076 6.30437 9.03778 6.12313C9.20481 5.94189 9.40602 5.79547 9.62985 5.69231C9.85369 5.58914 10.0942 5.53127 10.3405 5.52201ZM7.2055 16.379C8.758 18.077 10.1935 19.169 10.1935 19.169L10.4155 19.334L10.639 19.169C10.639 19.169 12.049 18.107 13.5895 16.385C15.4225 16.5845 17.0005 16.9505 18.094 17.4095C18.661 17.648 19.0975 17.909 19.372 18.1625C19.6465 18.4175 19.75 18.6365 19.75 18.8375C19.75 19.0865 19.579 19.3805 19.138 19.7015C18.697 20.0225 18.016 20.3375 17.1595 20.6015C15.4465 21.1265 13.036 21.4625 10.375 21.4625C7.714 21.4625 5.3035 21.128 3.5905 20.6C2.734 20.3375 2.053 20.0225 1.612 19.7C1.171 19.3805 1 19.0865 1 18.8375C1 18.6365 1.102 18.4145 1.378 18.1595C1.654 17.9045 2.092 17.642 2.6605 17.405C3.7645 16.943 5.3575 16.5785 7.2055 16.379Z" fill="#0065FF"/>
</svg>
