<svg width="18" height="18" viewBox="0 0 18 18" fill="none" xmlns="http://www.w3.org/2000/svg">
<path d="M16.4948 12.7268C15.8104 12.0236 13.8651 10.7064 12.5901 10.7064C12.2948 10.7064 12.037 10.7721 11.8261 10.908C11.2026 11.3064 10.7058 11.6158 10.4667 11.6158C10.3354 11.6158 10.1948 11.4986 9.88544 11.2314L9.83388 11.1846C8.97607 10.4393 8.79325 10.2471 8.46044 9.9002L8.37607 9.81113C8.31513 9.75019 8.26357 9.69395 8.212 9.64238C7.92138 9.34238 7.71044 9.12676 6.96513 8.28301L6.93232 8.24551C6.57607 7.84238 6.34169 7.57988 6.32763 7.3877C6.31357 7.2002 6.47763 6.89551 6.89482 6.32832C7.40107 5.64395 7.41982 4.8002 6.95575 3.82051C6.58544 3.04707 5.98075 2.30645 5.44638 1.65488L5.3995 1.59863C4.94013 1.03613 4.40575 0.754883 3.81044 0.754883C3.1495 0.754883 2.60107 1.11113 2.31044 1.29863C2.287 1.3127 2.26357 1.33145 2.24013 1.34551C1.58857 1.75801 1.11513 2.3252 0.937004 2.90176C0.669816 3.76895 0.491691 4.89395 1.77138 7.23301C2.87763 9.25801 3.88075 10.6174 5.4745 12.2533C6.9745 13.7908 7.64013 14.2877 9.13075 15.3658C10.7901 16.5658 12.3839 17.2549 13.4995 17.2549C14.5354 17.2549 15.3511 17.2549 16.5136 15.8533C17.7323 14.3814 17.2261 13.4814 16.4948 12.7268ZM15.9558 15.3471C15.0183 16.4814 14.4792 16.4814 13.5042 16.4814C12.5526 16.4814 11.0761 15.8252 9.55732 14.733C8.10419 13.683 7.45732 13.2002 5.9995 11.7049C4.45732 10.1252 3.487 8.80801 2.41825 6.85332C1.28857 4.78613 1.41513 3.88145 1.64482 3.13613C1.76669 2.7377 2.13232 2.31113 2.62919 2.00176C2.65263 1.9877 2.67607 1.96895 2.70419 1.95488C2.95263 1.79551 3.36513 1.52832 3.81513 1.52832C4.19013 1.52832 4.52294 1.71582 4.84169 2.10488L4.88857 2.16113C6.08388 3.62363 7.01669 4.91738 6.31357 5.87363C5.81669 6.54395 5.55419 6.99863 5.59638 7.46738C5.63388 7.92207 5.93857 8.26426 6.39794 8.77988L6.43075 8.81738C7.18544 9.67051 7.40107 9.89551 7.70107 10.2002C7.75263 10.2518 7.80419 10.308 7.86513 10.3689L7.9495 10.458C8.29638 10.8189 8.48857 11.0158 9.36982 11.7893L9.42138 11.8361C9.79638 12.1643 10.0729 12.4033 10.4761 12.4033C10.8933 12.4033 11.3526 12.1408 12.2245 11.583C12.3136 11.5268 12.4401 11.4939 12.5995 11.4939C13.6167 11.4939 15.3698 12.6564 15.9839 13.2893C16.5464 13.8611 16.8276 14.2924 15.9558 15.3471Z" fill="#0065FF"/>
</svg>
