<svg width="20" height="22" viewBox="0 0 20 22" fill="none" xmlns="http://www.w3.org/2000/svg">
<path d="M1.1449 20.9237C1.03818 20.9236 0.93556 20.8826 0.858189 20.8091C0.583509 20.5474 0.365595 20.2319 0.217987 19.8824C0.0703785 19.5329 -0.00377022 19.1568 0.000147532 18.7774V3.22576C-0.001409 2.84062 0.07625 2.45927 0.228301 2.10539C0.380352 1.75152 0.603548 1.43268 0.884026 1.16868C0.960981 1.0961 1.06266 1.0555 1.16845 1.05512C1.27423 1.05473 1.37621 1.09458 1.45369 1.1666L11.318 10.2874C11.3592 10.3255 11.3922 10.3714 11.4152 10.4225C11.4381 10.4736 11.4505 10.5289 11.4517 10.5849C11.4528 10.6409 11.4426 10.6965 11.4217 10.7485C11.4008 10.8005 11.3697 10.8478 11.3301 10.8874L1.43994 20.8041C1.3613 20.8814 1.2552 20.9244 1.1449 20.9237ZM1.20074 2.06618C0.958132 2.40383 0.829524 2.81003 0.833602 3.22576V18.7774C0.830024 19.1747 0.946197 19.5638 1.16698 19.8941L10.4338 10.6024L1.20074 2.06618Z" fill="#2E2E36"/>
<path d="M15.4806 15.1204C15.3757 15.1204 15.2746 15.0808 15.1976 15.0095L11.7088 11.7812L10.7503 10.8979C10.709 10.8598 10.6759 10.8139 10.6528 10.7627C10.6297 10.7115 10.6172 10.6562 10.6161 10.6001C10.6149 10.544 10.6251 10.4882 10.646 10.4361C10.6669 10.3841 10.6981 10.3367 10.7378 10.297L14.4304 6.59495C14.4944 6.53077 14.5775 6.48918 14.6672 6.47647C14.7569 6.46376 14.8483 6.48064 14.9276 6.52453L18.4923 8.49745C19.4362 9.02328 19.9987 9.95828 19.9987 11C19.9987 12.0416 19.4362 12.9787 18.4939 13.5037L15.6831 15.0666C15.6213 15.1015 15.5516 15.12 15.4806 15.1204ZM11.635 10.5787L12.2747 11.1687L15.5427 14.1929L18.0897 12.7762C18.7636 12.4012 19.1661 11.7366 19.1661 11.0004C19.1661 10.2641 18.7636 9.60078 18.0893 9.22495L14.8005 7.40495L11.635 10.5787Z" fill="#2E2E36"/>
<path d="M11.0354 11.0083C10.9305 11.0083 10.8294 10.9687 10.7524 10.8974L0.888061 1.77662C0.846908 1.73859 0.813847 1.69267 0.790853 1.64158C0.76786 1.59049 0.755408 1.53529 0.754241 1.47927C0.753074 1.42326 0.763216 1.36759 0.784061 1.31559C0.804906 1.26358 0.836026 1.21632 0.875559 1.17662C1.03809 1.0207 1.21822 0.884226 1.4123 0.76995C1.86686 0.492659 2.38733 0.34199 2.91975 0.333565C3.45216 0.325139 3.97714 0.459264 4.44025 0.722033L14.9301 6.52453C14.9866 6.55576 15.035 6.59966 15.0716 6.65278C15.1081 6.7059 15.1319 6.76679 15.1409 6.83065C15.15 6.89451 15.1441 6.9596 15.1237 7.02079C15.1033 7.08198 15.069 7.1376 15.0235 7.18328L11.3304 10.8858C11.2917 10.9246 11.2457 10.9554 11.1951 10.9764C11.1445 10.9974 11.0902 11.0083 11.0354 11.0083ZM1.81653 1.49995L11.0237 10.0133L14.0441 6.9862L4.03602 1.45078C3.70157 1.26024 3.32224 1.16258 2.93734 1.16793C2.55245 1.17328 2.17598 1.28144 1.84695 1.4812L1.81653 1.49995Z" fill="#2E2E36"/>
<path d="M2.96046 21.6666C2.41635 21.6697 1.88222 21.5205 1.41857 21.2357C1.21157 21.116 1.02105 20.9697 0.851821 20.8007C0.773951 20.7226 0.730225 20.6169 0.730225 20.5066C0.730225 20.3963 0.773951 20.2905 0.851821 20.2124L10.742 10.2958C10.8181 10.2196 10.9208 10.1758 11.0285 10.1736C11.1361 10.1714 11.2405 10.211 11.3196 10.2841L12.2781 11.1678L15.7669 14.3966C15.8153 14.4414 15.8524 14.497 15.8751 14.5588C15.8978 14.6207 15.9055 14.6871 15.8976 14.7526C15.8897 14.818 15.8663 14.8806 15.8295 14.9353C15.7926 14.9899 15.7433 15.0351 15.6856 15.067L4.44443 21.2791C3.9925 21.5366 3.48061 21.6703 2.96046 21.6666ZM1.7682 20.4737C1.79154 20.4887 1.81529 20.5032 1.83946 20.5153L1.85363 20.5237C2.18618 20.7287 2.56976 20.836 2.96046 20.8332C3.33467 20.8369 3.70318 20.7415 4.02853 20.5566L4.03687 20.552L14.7772 14.6178L11.7117 11.7812L11.0487 11.1695L1.7682 20.4737Z" fill="#2E2E36"/>
</svg>
