<svg width="80" height="80" viewBox="0 0 80 80" fill="none" xmlns="http://www.w3.org/2000/svg">
<circle cx="40" cy="40" r="40" fill="#6BA6FF"/>
<path d="M40.8656 18.125C32.6188 18.1375 26.0219 25.6188 26.0219 34.0969C26.0219 40.15 29.4594 45.6657 32.9281 49.7907C29.4344 50.2344 26.3906 50.95 24.1125 51.9032C22.8187 52.4438 21.7594 53.0532 20.9813 53.7688C20.2031 54.4875 19.6875 55.3594 19.6875 56.3282C19.6875 57.5344 20.4687 58.5625 21.6031 59.3907C22.7406 60.2188 24.2969 60.9094 26.1875 61.4907C29.9688 62.6532 35.1063 63.3594 40.7813 63.3594C46.4563 63.3594 51.5938 62.6532 55.375 61.4907C57.2656 60.9094 58.8219 60.2188 59.9594 59.3907C61.0969 58.5625 61.875 57.5344 61.875 56.3282C61.875 55.3594 61.3594 54.4907 60.5875 53.775C59.8125 53.0625 58.7563 52.45 57.4688 51.9094C55.2094 50.9594 52.1875 50.25 48.7219 49.8032C52.2469 45.4969 55.7094 39.5938 55.7094 32.9188C55.7094 24.4406 49.0313 18.1125 40.8656 18.125ZM40.8656 19.6875C48.2281 19.675 54.1469 25.2531 54.1469 32.9188C54.1469 44.9875 41.7125 54.6625 40.8594 55.3188C40.4375 55 37.6469 52.9313 34.4281 49.1844C30.9719 45.1657 27.5844 39.725 27.5844 34.0969C27.5844 26.4313 33.5719 19.7 40.8656 19.6875ZM40.6469 27.0313C39.1992 27.0922 37.8346 27.7243 36.8518 28.789C35.869 29.8538 35.3481 31.2646 35.4031 32.7125C35.4641 34.1608 36.0965 35.5259 37.162 36.5088C38.2274 37.4916 39.639 38.0121 41.0875 37.9563C42.5352 37.8945 43.8995 37.2617 44.8817 36.1963C45.8639 35.131 46.384 33.7199 46.3281 32.2719C46.2664 30.8247 45.634 29.4609 44.5693 28.4788C43.5046 27.4967 42.0943 26.9762 40.6469 27.0313ZM40.7094 28.5875C41.2224 28.5658 41.7347 28.6455 42.2168 28.8222C42.6989 28.9989 43.1414 29.2691 43.5188 29.6172C43.8963 29.9653 44.2013 30.3845 44.4163 30.8508C44.6313 31.3171 44.7522 31.8213 44.7719 32.3344C44.7941 32.8474 44.7146 33.3596 44.538 33.8418C44.3614 34.3239 44.0912 34.7663 43.743 35.1436C43.3947 35.5209 42.9753 35.8256 42.5089 36.0402C42.0424 36.2547 41.5381 36.3749 41.025 36.3938C40.5124 36.416 40.0006 36.3366 39.5188 36.1601C39.0371 35.9837 38.595 35.7138 38.218 35.3658C37.841 35.0178 37.5365 34.5988 37.3221 34.1327C37.1077 33.6666 36.9876 33.1627 36.9688 32.65C36.9461 32.1371 37.0252 31.6247 37.2014 31.1424C37.3776 30.6601 37.6474 30.2174 37.9954 29.8399C38.3433 29.4623 38.7625 29.1572 39.2289 28.9423C39.6952 28.7274 40.1963 28.6068 40.7094 28.5875ZM34.1781 51.2063C37.4125 54.7438 40.4031 57.0188 40.4031 57.0188L40.8656 57.3625L41.3313 57.0188C41.3313 57.0188 44.2688 54.8063 47.4781 51.2188C51.2969 51.6344 54.5844 52.3969 56.8625 53.3532C58.0438 53.85 58.9531 54.3938 59.525 54.9219C60.0969 55.4532 60.3125 55.9094 60.3125 56.3282C60.3125 56.8469 59.9563 57.4594 59.0375 58.1282C58.1188 58.7969 56.7 59.4532 54.9156 60.0032C51.3469 61.0969 46.325 61.7969 40.7813 61.7969C35.2375 61.7969 30.2156 61.1 26.6469 60C24.8625 59.4532 23.4438 58.7969 22.525 58.125C21.6063 57.4594 21.25 56.8469 21.25 56.3282C21.25 55.9094 21.4625 55.4469 22.0375 54.9157C22.6125 54.3844 23.525 53.8375 24.7094 53.3438C27.0094 52.3813 30.3281 51.6219 34.1781 51.2063Z" fill="#FAFAFA"/>
</svg>
