<svg width="50" height="50" viewBox="0 0 50 50" fill="none" xmlns="http://www.w3.org/2000/svg">
<g clip-path="url(#clip0_662_4551)">
<mask id="mask0_662_4551" style="mask-type:luminance" maskUnits="userSpaceOnUse" x="0" y="0" width="289" height="50">
<path d="M0 0H288.906V49.5H0V0Z" fill="white"/>
</mask>
<g mask="url(#mask0_662_4551)">
<path fill-rule="evenodd" clip-rule="evenodd" d="M27.6826 17.8585V24.7172C27.6842 25.0906 27.834 25.4476 28.0997 25.7107C28.365 25.9737 28.7244 26.1205 29.0986 26.1189H33.7114C34.0845 26.1205 34.4428 25.9737 34.7064 25.7101C34.9706 25.4471 35.1176 25.0895 35.1165 24.7172V20.1411C35.1176 19.7688 34.9706 19.4112 34.7064 19.1482C34.4428 18.8846 34.0845 18.7373 33.7114 18.739H30.4928V17.8422C30.5107 16.083 31.9485 14.6678 33.7114 14.6737C34.4875 14.6737 35.1165 14.0455 35.1165 13.2716C35.1165 12.4971 34.4875 11.8693 33.7114 11.8693C32.1168 11.8591 30.5843 12.4835 29.4526 13.6047C28.3209 14.7259 27.6842 16.2509 27.6826 17.8422V17.8585ZM14.8025 17.8585V24.7172C14.8025 25.09 14.9512 25.4476 15.2159 25.7101C15.4805 25.9737 15.8394 26.1205 16.213 26.1189H20.8259C21.2001 26.1205 21.5595 25.9737 21.8247 25.7107C22.0905 25.4476 22.2403 25.0906 22.2419 24.7172V20.1411C22.2419 19.7672 22.0921 19.4091 21.8264 19.1455C21.5606 18.8824 21.2006 18.7357 20.8259 18.739H17.629V17.8422C17.6437 16.09 19.0701 14.6765 20.8259 14.6737C21.602 14.6737 22.231 14.0455 22.231 13.2716C22.231 12.4971 21.602 11.8693 20.8259 11.8693C19.2324 11.8607 17.7009 12.4857 16.5708 13.6069C15.4402 14.7275 14.8041 16.252 14.8025 17.8422V17.8585ZM16.4962 32.5324C16.2571 32.539 16.0388 32.6705 15.9217 32.8786C15.8046 33.0873 15.8057 33.3411 15.9244 33.5487C16.0497 33.7607 19.0396 38.815 24.9976 38.815C30.9557 38.815 33.8966 33.7607 34.0328 33.5487C34.152 33.3373 34.152 33.0803 34.0328 32.8694C33.9135 32.6601 33.6907 32.5319 33.45 32.5324H16.4962Z" fill="#0A0B09"/>
</g>
<mask id="mask1_662_4551" style="mask-type:luminance" maskUnits="userSpaceOnUse" x="0" y="0" width="289" height="50">
<path d="M0 0H288.906V49.5H0V0Z" fill="white"/>
</mask>
<g mask="url(#mask1_662_4551)">
<path fill-rule="evenodd" clip-rule="evenodd" d="M15.3803 4.89839e-05C6.90396 -0.0210975 0.00970859 6.80771 -0.0322266 15.2664V34.2338C0.00970859 42.6925 6.90396 49.5213 15.3803 49.5001H28.3748L19.8134 43.3963H15.3803C10.2893 43.4148 6.14586 39.3142 6.12189 34.2338V15.2664C6.16383 10.1936 10.2969 6.10282 15.3803 6.10336H34.5343C39.6183 6.10282 43.7508 10.1936 43.7927 15.2664V34.2338C43.7508 39.3066 39.6183 43.3968 34.5343 43.3963H30.8963V49.5001H34.5343C43.0118 49.5213 49.9071 42.693 49.9523 34.2338V15.2664C49.9071 6.80716 43.0118 -0.0210975 34.5343 4.89839e-05H15.3803Z" fill="#FF5551"/>
</g>
</g>
<defs>
<clipPath id="clip0_662_4551">
<rect width="50" height="50" fill="white"/>
</clipPath>
</defs>
</svg>
