<svg width="173" height="52" viewBox="0 0 173 52" fill="none" xmlns="http://www.w3.org/2000/svg">
<g clip-path="url(#clip0_289_3468)">
<path d="M128.543 50.305L142.959 34.3389L128.543 18.3706H143.753L150.893 26.127L157.768 18.3706H172.447L158.1 34.273L172.644 50.305H157.372L150.297 42.4849L143.288 50.305H128.543Z" fill="#FF6600"/>
<path d="M128.544 11.2123H112.217V18.3708H128.544V29.1593H112.217V39.0618H128.544V50.3051H100.217V0H128.544V11.2123Z" fill="#FF6600"/>
<path d="M88.2669 0V20.5873H88.1354C85.4899 17.5899 82.1846 16.5484 78.3494 16.5484C70.4934 16.5484 64.5757 21.8126 62.4984 28.7726C60.1295 21.1036 54.0201 16.4046 44.9609 16.4046C37.6039 16.4046 31.7944 19.6598 28.7627 24.964V18.3715H13.5558V11.2137H30.1508V0H0V50.3059H13.5558V29.1593H27.0672C26.6643 30.7128 26.4494 32.3759 26.4494 34.1309C26.4494 44.6245 34.582 51.9875 44.9609 51.9875C53.6887 51.9875 59.4403 47.9486 62.4826 40.5849H50.8658C49.2943 42.797 48.1024 43.4541 44.9609 43.4541C41.3181 43.4541 38.1774 40.3212 38.1774 36.6074H61.8318C62.8576 44.9424 69.4442 52.1305 78.4832 52.1305C82.3822 52.1305 85.9521 50.2399 88.1354 47.0478H88.2669V50.3044H100.217V0H88.2669ZM38.5547 29.3097C39.3085 26.1145 41.8224 24.0262 44.9609 24.0262C48.4158 24.0262 50.802 26.0501 51.4295 29.3097C51.6941 29.3097 38.5547 29.3097 38.5547 29.3097ZM81.0151 42.6458C76.6103 42.6458 73.8731 38.6002 73.8731 34.3761C73.8731 29.8608 76.2541 25.5189 81.0151 25.5189C85.9521 25.5189 87.9189 29.8608 87.9189 34.3761C87.9182 38.658 85.8341 42.6458 81.0151 42.6458Z" fill="#652C8F"/>
</g>
<defs>
<clipPath id="clip0_289_3468">
<rect width="172.857" height="51.8571" fill="white"/>
</clipPath>
</defs>
</svg>
