<svg width="1440" height="211" viewBox="0 0 1440 211" fill="none" xmlns="http://www.w3.org/2000/svg">
<g clip-path="url(#clip0_206_3279)">
<rect width="1440" height="211" fill="#2B7FFF"/>
<path opacity="0.4" d="M113.683 59.4177C93.2419 67.2855 80.144 81.8427 71.5451 96.5373C62.9524 111.232 57.8411 126.721 47.9835 141.09C34.2313 161.139 9.92194 179.083 -21.0197 185.995C-51.9613 192.907 -89.1469 186.489 -104.881 168.195C-116.295 154.929 -115.304 138.108 -111.4 122.495C-107.496 106.883 -100.983 91.2288 -102.435 75.6201C-103.888 60.0115 -115.554 43.8836 -137.294 39.0448C-158.677 34.2836 -183.942 42.1495 -198.491 54.5954C-213.041 67.0413 -218.615 83.0426 -220.483 98.4909C-223.181 120.751 -218.909 143.382 -205.258 163.135C-191.606 182.888 -168.177 199.593 -138.344 208.025C-102.124 218.262 -60.0932 215.805 -20.2407 211.554C35.3449 205.63 93.8111 195.308 134.331 167.905C155.76 153.413 170.073 134.534 176.135 114.888C179.164 105.052 180.151 94.9967 178.94 85.1331C177.779 75.7432 176.448 64.1445 164.181 58.4093C150.379 51.9611 128.228 53.8221 113.683 59.4177Z" fill="url(#paint0_linear_206_3279)"/>
<path opacity="0.4" d="M787.252 102.22C766.625 94.8507 747.202 97.3422 731.099 102.872C715.002 108.406 701.024 116.814 684.181 121.275C660.679 127.503 630.548 125.25 602.586 110.308C574.624 95.3652 550.623 66.2465 550.628 42.1167C550.629 24.616 562.352 12.5123 575.494 3.22414C588.637 -6.06399 603.784 -13.6816 612.864 -26.4605C621.943 -39.2394 623.619 -59.0737 610.296 -76.9213C597.193 -94.4773 572.912 -104.994 553.765 -105.049C534.618 -105.105 519.957 -96.6116 508.465 -86.1198C491.901 -71.0061 480.378 -51.0655 477.842 -27.1884C475.307 -3.31131 482.17 24.6325 499.285 50.4822C520.062 81.8667 553.525 107.418 586.506 130.189C632.504 161.954 683.555 192.264 732.143 197.922C757.838 200.914 781.002 195.939 798.41 185C807.122 179.52 814.429 172.542 819.944 164.275C825.189 156.401 831.744 146.74 826.187 134.392C819.931 120.502 801.926 107.465 787.252 102.22Z" fill="url(#paint1_linear_206_3279)"/>
<path opacity="0.4" d="M1145.39 107.177C1169.77 159.917 1220.99 195.293 1273.84 219.372C1326.69 243.435 1383.37 258.871 1434.69 286.062C1506.29 323.998 1567.41 388.145 1585.62 467.144C1603.82 546.143 1570.62 638.635 1498.29 675.18C1445.84 701.692 1383.15 696.399 1325.71 683.98C1268.27 671.562 1211.32 652.57 1152.56 653.629C1093.81 654.688 1030.59 681.357 1007.11 735.251C984.011 788.259 1007.19 853.133 1050.15 891.811C1093.12 930.489 1151.6 947.173 1208.93 954.441C1291.54 964.932 1377.26 957.949 1454.54 926.886C1531.81 895.824 1600.1 839.656 1639.02 765.997C1686.28 676.57 1687.48 570.411 1681.43 469.435C1673.01 328.596 1648.86 179.777 1556.36 73.2709C1507.45 16.9447 1440.36 -22.2072 1368.36 -40.7246C1332.31 -49.9832 1294.94 -54.1386 1257.74 -52.7324C1222.32 -51.3736 1178.6 -49.9516 1154.11 -20.0426C1126.57 13.6109 1128.06 69.6528 1145.39 107.177Z" fill="url(#paint2_linear_206_3279)"/>
</g>
<defs>
<linearGradient id="paint0_linear_206_3279" x1="-25.7595" y1="29.2396" x2="-13.6911" y2="211.807" gradientUnits="userSpaceOnUse">
<stop stop-color="#7ED4EF"/>
<stop offset="0.2294" stop-color="#66BFE6"/>
<stop offset="0.711" stop-color="#298BD0"/>
<stop offset="1" stop-color="#0169C2"/>
</linearGradient>
<linearGradient id="paint1_linear_206_3279" x1="701.236" y1="-11.6063" x2="591.306" y2="134.653" gradientUnits="userSpaceOnUse">
<stop stop-color="#7ED4EF"/>
<stop offset="0.2294" stop-color="#66BFE6"/>
<stop offset="0.711" stop-color="#298BD0"/>
<stop offset="1" stop-color="#0169C2"/>
</linearGradient>
<linearGradient id="paint2_linear_206_3279" x1="998.012" y1="452.998" x2="1683.99" y2="452.998" gradientUnits="userSpaceOnUse">
<stop stop-color="#7ED4EF"/>
<stop offset="0.2294" stop-color="#66BFE6"/>
<stop offset="0.711" stop-color="#298BD0"/>
<stop offset="1" stop-color="#0169C2"/>
</linearGradient>
<clipPath id="clip0_206_3279">
<rect width="1440" height="211" fill="white"/>
</clipPath>
</defs>
</svg>
