<svg width="759" height="741" viewBox="0 0 759 741" fill="none" xmlns="http://www.w3.org/2000/svg">
<path opacity="0.1" d="M616 665C595.018 665 578 682.018 578 703C578 723.982 595.018 741 616 741C636.982 741 654 723.982 654 703C654 682.018 636.982 665 616 665ZM616 721.138C605.991 721.138 597.885 713.032 597.885 703.022C597.885 693.013 605.991 684.907 616 684.907C626.009 684.907 634.115 693.013 634.115 703.022C634.115 713.032 626.009 721.138 616 721.138Z" fill="#003E9C"/>
<path opacity="0.4" d="M751 190C746.582 190 743 193.582 743 198C743 202.418 746.582 206 751 206C755.418 206 759 202.418 759 198C759 193.582 755.418 190 751 190ZM751 200.16C749.806 200.16 748.84 199.194 748.84 198C748.84 196.806 749.806 195.84 751 195.84C752.194 195.84 753.16 196.806 753.16 198C753.16 199.194 752.194 200.16 751 200.16Z" fill="#0065FF"/>
<path d="M153.74 348C148.91 348 145 351.91 145 356.74C145 361.57 148.91 365.48 153.74 365.48C158.57 365.48 162.48 361.57 162.48 356.74C162.48 351.91 158.57 348 153.74 348ZM153.74 360.9C151.44 360.9 149.57 359.03 149.57 356.73C149.57 354.43 151.44 352.56 153.74 352.56C156.04 352.56 157.91 354.43 157.91 356.73C157.91 359.03 156.04 360.9 153.74 360.9Z" fill="#96C0FF"/>
<path opacity="0.1" d="M63.26 0C28.32 0 0 28.32 0 63.26C0 98.2 28.32 126.52 63.26 126.52C98.2 126.52 126.52 98.2 126.52 63.26C126.52 28.32 98.2 0 63.26 0ZM63.26 101.68C42.04 101.68 24.84 84.48 24.84 63.26C24.84 42.04 42.04 24.84 63.26 24.84C84.48 24.84 101.68 42.04 101.68 63.26C101.68 84.48 84.48 101.68 63.26 101.68Z" fill="#6BA6FF"/>
<path d="M713.34 522.76L724.1 533.52V512L713.34 522.76Z" fill="#244579"/>
<path d="M697 522.76L707.76 533.52V512L697 522.76Z" fill="#244579"/>
</svg>
