<svg width="24" height="24" viewBox="0 0 24 24" fill="none" xmlns="http://www.w3.org/2000/svg">
<path d="M5.59922 5.59961C4.27642 5.59961 3.19922 6.67681 3.19922 7.99961V15.9996C3.19922 17.3224 4.27642 18.3996 5.59922 18.3996H18.3992C19.722 18.3996 20.7992 17.3224 20.7992 15.9996V7.99961C20.7992 6.67681 19.722 5.59961 18.3992 5.59961H5.59922ZM5.59922 6.39961H18.3992C19.2924 6.39961 19.9992 7.10641 19.9992 7.99961V15.9996C19.9992 16.8928 19.2924 17.5996 18.3992 17.5996H5.59922C5.38866 17.6012 5.17988 17.5609 4.98504 17.4811C4.7902 17.4012 4.61318 17.2834 4.46429 17.1345C4.31539 16.9856 4.1976 16.8086 4.11776 16.6138C4.03792 16.4189 3.99762 16.2102 3.99922 15.9996V7.99961C3.99922 7.10641 4.70602 6.39961 5.59922 6.39961Z" fill="#0065FF"/>
<path d="M6.01308 8.00016C5.95861 7.99861 5.9044 8.00821 5.85378 8.02837C5.80315 8.04852 5.75718 8.0788 5.71868 8.11736C5.64369 8.19237 5.60156 8.2941 5.60156 8.40016C5.60156 8.50623 5.64369 8.60795 5.71868 8.68296L10.5187 13.483C11.3343 14.299 12.6687 14.299 13.4843 13.483L18.2843 8.68296C18.3593 8.60795 18.4014 8.50623 18.4014 8.40016C18.4014 8.2941 18.3593 8.19237 18.2843 8.11736C18.2093 8.04237 18.1075 8.00025 18.0015 8.00025C17.8954 8.00025 17.7937 8.04237 17.7187 8.11736L12.9187 12.9174C12.7986 13.0385 12.6558 13.1347 12.4983 13.2003C12.3409 13.266 12.172 13.2997 12.0015 13.2997C11.8309 13.2997 11.662 13.266 11.5046 13.2003C11.3472 13.1347 11.2043 13.0385 11.0843 12.9174L6.28428 8.11736C6.21215 8.04512 6.11512 8.00319 6.01308 8.00016Z" fill="#0065FF"/>
</svg>
